<svg width="24" height="24" viewBox="0 0 24 24" fill="none" xmlns="http://www.w3.org/2000/svg">
<path d="M12.306 14.016C13.0447 14.0918 13.7291 14.4388 14.2268 14.99C14.7244 15.5412 14.9999 16.2574 15 17C15 18.542 14.06 19.818 12.796 20.66C11.526 21.508 9.826 22 8 22C6.174 22 4.474 21.508 3.204 20.66C1.938 19.82 1 18.542 1 17C1 16.2044 1.31607 15.4413 1.87868 14.8787C2.44129 14.3161 3.20435 14 4 14H12L12.306 14.016ZM19.996 14C20.7916 14 21.5547 14.3161 22.1173 14.8787C22.6799 15.4413 22.996 16.2044 22.996 17C22.996 18.39 22.134 19.422 21.03 20.056C19.934 20.686 18.5 21 16.996 21C16.4907 20.9987 15.9973 20.962 15.516 20.89C15.984 20.338 16.376 19.704 16.638 18.99C16.7567 18.9967 16.876 19 16.996 19C18.254 19 19.32 18.734 20.034 18.324C20.74 17.918 20.996 17.45 20.996 17C20.996 16.7348 20.8906 16.4804 20.7031 16.2929C20.5156 16.1054 20.2612 16 19.996 16H16.896C16.7453 15.2743 16.4352 14.5911 15.988 14H19.996ZM4 16C3.73478 16 3.48043 16.1054 3.29289 16.2929C3.10536 16.4804 3 16.7348 3 17C3 17.666 3.406 18.392 4.312 18.996C5.212 19.596 6.512 20 8 20C9.486 20 10.788 19.596 11.688 18.996C12.594 18.392 13 17.666 13 17C13 16.7695 12.9204 16.546 12.7747 16.3674C12.6289 16.1888 12.4259 16.0661 12.2 16.02L12 16H4ZM8.462 3.01801C9.57118 3.13183 10.5988 3.65285 11.3461 4.48034C12.0934 5.30783 12.5074 6.38301 12.508 7.49801L12.484 7.95801C12.3692 9.06646 11.8478 10.0931 11.0204 10.8396C10.193 11.5861 9.11838 11.9995 8.004 12L7.544 11.976C6.51366 11.8709 5.55112 11.4136 4.81878 10.6812C4.08644 9.94889 3.62912 8.98634 3.524 7.95601L3.5 7.49601C3.5 6.30129 3.97446 5.15547 4.81907 4.31049C5.66368 3.46551 6.80928 2.99054 8.004 2.99001L8.462 3.01801ZM17.5 4.99401C17.9596 4.99401 18.4148 5.08454 18.8394 5.26043C19.264 5.43632 19.6499 5.69413 19.9749 6.01913C20.2999 6.34414 20.5577 6.72997 20.7336 7.15461C20.9095 7.57925 21 8.03438 21 8.49401C21 8.95363 20.9095 9.40876 20.7336 9.8334C20.5577 10.258 20.2999 10.6439 19.9749 10.9689C19.6499 11.2939 19.264 11.5517 18.8394 11.7276C18.4148 11.9035 17.9596 11.994 17.5 11.994C16.5717 11.994 15.6815 11.6253 15.0251 10.9689C14.3687 10.3125 14 9.42226 14 8.49401C14 7.56575 14.3687 6.67551 15.0251 6.01913C15.6815 5.36275 16.5717 4.99401 17.5 4.99401ZM8.004 4.99401C7.67517 4.99401 7.34956 5.05877 7.04576 5.18461C6.74196 5.31045 6.46592 5.49489 6.2334 5.72741C6.00089 5.95993 5.81644 6.23597 5.69061 6.53977C5.56477 6.84357 5.5 7.16918 5.5 7.49801C5.5 7.82684 5.56477 8.15245 5.69061 8.45625C5.81644 8.76004 6.00089 9.03608 6.2334 9.2686C6.46592 9.50112 6.74196 9.68556 7.04576 9.8114C7.34956 9.93724 7.67517 10.002 8.004 10.002C8.6681 10.002 9.305 9.73819 9.7746 9.2686C10.2442 8.79901 10.508 8.16211 10.508 7.49801C10.508 6.8339 10.2442 6.197 9.7746 5.72741C9.305 5.25782 8.6681 4.99401 8.004 4.99401ZM17.5 6.99401C17.1022 6.99401 16.7206 7.15204 16.4393 7.43334C16.158 7.71465 16 8.09618 16 8.49401C16 8.89183 16.158 9.27336 16.4393 9.55467C16.7206 9.83597 17.1022 9.99401 17.5 9.99401C17.8978 9.99401 18.2794 9.83597 18.5607 9.55467C18.842 9.27336 19 8.89183 19 8.49401C19 8.09618 18.842 7.71465 18.5607 7.43334C18.2794 7.15204 17.8978 6.99401 17.5 6.99401Z" fill="white"/>
</svg>
