<svg width="44" height="44" viewBox="0 0 44 44" fill="none" xmlns="http://www.w3.org/2000/svg">
<path d="M14.667 27.9365C14.667 28.708 15.292 29.333 16.0635 29.333H29.333V42.6035C29.3328 43.3748 28.7078 44 27.9365 44H14.667C6.56682 44 0 37.4332 0 29.333C0.000172507 21.3596 6.36299 14.8727 14.2881 14.6719L14.667 14.667V27.9365ZM29.333 0C37.4332 0 44 6.56682 44 14.667C43.9998 22.767 37.4331 29.333 29.333 29.333V16.0635C29.333 15.292 28.708 14.667 27.9365 14.667H14.667V1.39648C14.6672 0.625202 15.2922 7.83673e-06 16.0635 0H29.333Z" fill="#CB3CFF"/>
<path d="M15.9062 0C15.2217 0 14.6667 0.554914 14.6667 1.23944L14.6668 14.6667H28.094C28.7785 14.6667 29.3334 15.2216 29.3334 15.9061L29.3334 29.3333C37.4336 29.3333 44.0001 22.7668 44.0001 14.6667C44.0001 6.56649 37.4336 0 29.3334 0H15.9062Z" fill="#00C2FF"/>
</svg>
